<svg xmlns="http://www.w3.org/2000/svg" version="1.1" xmlns:xlink="http://www.w3.org/1999/xlink" xmlns:svgjs="http://svgjs.dev/svgjs" width="1500" height="1500" viewBox="0 0 1500 1500"><rect width="1500" height="1500" fill="#1f0f53"></rect><g transform="matrix(0.6666666666666666,0,0,0.6666666666666666,249.39393939393943,653.2590923386562)"><svg viewBox="0 0 396 77" data-background-color="#1f0f53" preserveAspectRatio="xMidYMid meet" height="291" width="1500" xmlns="http://www.w3.org/2000/svg" xmlns:xlink="http://www.w3.org/1999/xlink"><g id="tight-bounds" transform="matrix(1,0,0,1,0.2400000000000091,-0.1028356189511328)"><svg viewBox="0 0 395.52 77.20567123790224" height="77.20567123790224" width="395.52"><g><svg viewBox="0 0 505.54792787600536 98.68316928245748" height="77.20567123790224" width="395.52"><g transform="matrix(1,0,0,1,110.02792787600535,13.638556680860624)"><svg viewBox="0 0 395.52 71.40605592073624" height="71.40605592073624" width="395.52"><g id="textblocktransform"><svg viewBox="0 0 395.52 71.40605592073624" height="71.40605592073624" width="395.52" id="textblock"><g><svg viewBox="0 0 395.52 39.69376344086022" height="39.69376344086022" width="395.52"><g transform="matrix(1,0,0,1,0,0)"><svg width="395.52" viewBox="4 -35.7 360.33 36.400000000000006" height="39.69376344086022" data-palette-color="#ffdb99"><g class="wordmark-text-0" data-fill-palette-color="primary" id="text-0"><path d="M34.1-4.3L34.4-4.3 34.1-1.25Q32.7-0.65 30.7-0.2 28.7 0.25 26.65 0.48 24.6 0.7 23 0.7L23 0.7Q18.95 0.7 15.5-0.68 12.05-2.05 9.47-4.5 6.9-6.95 5.45-10.28 4-13.6 4-17.5L4-17.5Q4-21.4 5.45-24.73 6.9-28.05 9.47-30.5 12.05-32.95 15.5-34.33 18.95-35.7 23-35.7L23-35.7Q24.65-35.7 26.7-35.45 28.75-35.2 30.7-34.77 32.65-34.35 34-33.8L34-33.8 33.75-31 33.45-31Q31.6-32.7 28.8-33.6 26-34.5 23-34.5L23-34.5Q18.5-34.5 15.08-32.38 11.65-30.25 9.73-26.43 7.8-22.6 7.8-17.5L7.8-17.5Q7.8-12.35 9.73-8.55 11.65-4.75 15.05-2.63 18.45-0.5 23-0.5L23-0.5Q26.4-0.5 29.33-1.6 32.25-2.7 34.1-4.3L34.1-4.3ZM41.35-1.1L41.35-1.1 41.65-4.1 41.95-4.1Q43.9-2.4 46.35-1.45 48.8-0.5 51.2-0.5L51.2-0.5Q54.6-0.5 56.7-2.38 58.8-4.25 58.8-7.4L58.8-7.4Q58.8-9.15 58.02-10.65 57.25-12.15 55.47-13.7 53.7-15.25 50.6-17.05L50.6-17.05Q48.45-18.3 46.5-19.68 44.55-21.05 43.3-22.88 42.05-24.7 42.05-27.25L42.05-27.25Q42.05-31.05 44.8-33.38 47.55-35.7 52.05-35.7L52.05-35.7Q54.05-35.7 56.35-35.27 58.65-34.85 59.9-34.2L59.9-34.2 59.65-31.4 59.35-31.4Q56.5-34.5 52.05-34.5L52.05-34.5Q48.85-34.5 46.9-32.88 44.95-31.25 44.95-28.5L44.95-28.5Q44.95-26.45 46.02-24.98 47.1-23.5 48.8-22.33 50.5-21.15 52.45-20.05L52.45-20.05Q54.7-18.75 56.82-17.3 58.95-15.85 60.32-13.83 61.7-11.8 61.7-8.75L61.7-8.75Q61.7-5.95 60.4-3.83 59.1-1.7 56.72-0.5 54.35 0.7 51.2 0.7L51.2 0.7Q49.2 0.7 46.5 0.2 43.8-0.3 41.35-1.1Z" fill="#ffdb99" data-fill-palette-color="primary"></path><path d="M81.7 0L81.7-35 88.4-35Q93.7-35 96.62-32.77 99.55-30.55 99.55-26.55L99.55-26.55Q99.55-23.45 97.72-21.4 95.9-19.35 92.45-18.65L92.45-18.65 92.45-18.35Q95.75-17.7 97.85-15.25 99.95-12.8 101-9.2L101-9.2Q101.95-5.9 102.87-4.08 103.8-2.25 104.92-1.45 106.05-0.65 107.6-0.3L107.6-0.3 107.6 0 105.55 0Q103.35 0 101.92-0.8 100.5-1.6 99.5-3.5 98.5-5.4 97.6-8.75L97.6-8.75Q96.15-13.9 93.75-16.05 91.35-18.2 87.9-18.2L87.9-18.2 87.6-18.2 87.6-19.1 87.9-19.1Q95.95-19.1 95.95-26.5L95.95-26.5Q95.95-33.8 88.4-33.8L88.4-33.8 85.1-33.8 85.1 0 81.7 0ZM129.2 0L113.8 0 113.8-35 129.04-35 129.04-32.55 120.3-33.7Q118-34 117.2-34L117.2-34 117.2-18.75Q117.85-18.75 120.3-18.9L120.3-18.9 128.5-19.4 128.5-17.1 120.3-17.6Q117.85-17.75 117.2-17.75L117.2-17.75 117.2-1Q118.1-1 120.35-1.3L120.35-1.3 129.2-2.45 129.2 0ZM136.64-1.1L136.64-1.1 136.94-4.1 137.24-4.1Q139.19-2.4 141.64-1.45 144.09-0.5 146.49-0.5L146.49-0.5Q149.89-0.5 151.99-2.38 154.09-4.25 154.09-7.4L154.09-7.4Q154.09-9.15 153.32-10.65 152.54-12.15 150.77-13.7 148.99-15.25 145.89-17.05L145.89-17.05Q143.74-18.3 141.79-19.68 139.84-21.05 138.59-22.88 137.34-24.7 137.34-27.25L137.34-27.25Q137.34-31.05 140.09-33.38 142.84-35.7 147.34-35.7L147.34-35.7Q149.34-35.7 151.64-35.27 153.94-34.85 155.19-34.2L155.19-34.2 154.94-31.4 154.64-31.4Q151.79-34.5 147.34-34.5L147.34-34.5Q144.14-34.5 142.19-32.88 140.24-31.25 140.24-28.5L140.24-28.5Q140.24-26.45 141.32-24.98 142.39-23.5 144.09-22.33 145.79-21.15 147.74-20.05L147.74-20.05Q149.99-18.75 152.12-17.3 154.24-15.85 155.62-13.83 156.99-11.8 156.99-8.75L156.99-8.75Q156.99-5.95 155.69-3.83 154.39-1.7 152.02-0.5 149.64 0.7 146.49 0.7L146.49 0.7Q144.49 0.7 141.79 0.2 139.09-0.3 136.64-1.1ZM164.34-17.5L164.34-17.5Q164.34-21.35 165.72-24.68 167.09-28 169.57-30.48 172.04-32.95 175.37-34.33 178.69-35.7 182.54-35.7L182.54-35.7Q186.39-35.7 189.72-34.33 193.04-32.95 195.52-30.48 197.99-28 199.37-24.68 200.74-21.35 200.74-17.5L200.74-17.5Q200.74-13.65 199.37-10.33 197.99-7 195.52-4.53 193.04-2.05 189.72-0.68 186.39 0.7 182.54 0.7L182.54 0.7Q178.69 0.7 175.37-0.68 172.04-2.05 169.57-4.53 167.09-7 165.72-10.33 164.34-13.65 164.34-17.5ZM168.14-17.5L168.14-17.5Q168.14-12.4 169.94-8.58 171.74-4.75 174.99-2.63 178.24-0.5 182.54-0.5L182.54-0.5Q186.84-0.5 190.09-2.63 193.34-4.75 195.14-8.6 196.94-12.45 196.94-17.5L196.94-17.5Q196.94-22.55 195.14-26.38 193.34-30.2 190.09-32.35 186.84-34.5 182.54-34.5L182.54-34.5Q178.24-34.5 175.02-32.38 171.79-30.25 169.97-26.43 168.14-22.6 168.14-17.5ZM210.74-14L210.74-35 214.14-35 214.14-13.9Q214.14-7.85 217.11-4.48 220.09-1.1 225.49-1.1L225.49-1.1Q228.89-1.1 231.41-2.43 233.94-3.75 235.31-6.1 236.69-8.45 236.59-11.5L236.59-11.5 235.74-35 239.14-35 238.29-11.5Q238.09-5.5 234.71-2.4 231.34 0.7 225.09 0.7L225.09 0.7Q218.34 0.7 214.54-3.23 210.74-7.15 210.74-14L210.74-14ZM251.14 0L251.14-35 257.84-35Q263.14-35 266.06-32.77 268.99-30.55 268.99-26.55L268.99-26.55Q268.99-23.45 267.16-21.4 265.34-19.35 261.89-18.65L261.89-18.65 261.89-18.35Q265.19-17.7 267.29-15.25 269.39-12.8 270.44-9.2L270.44-9.2Q271.39-5.9 272.31-4.08 273.24-2.25 274.36-1.45 275.49-0.65 277.04-0.3L277.04-0.3 277.04 0 274.99 0Q272.79 0 271.36-0.8 269.94-1.6 268.94-3.5 267.94-5.4 267.04-8.75L267.04-8.75Q265.59-13.9 263.19-16.05 260.79-18.2 257.34-18.2L257.34-18.2 257.04-18.2 257.04-19.1 257.34-19.1Q265.39-19.1 265.39-26.5L265.39-26.5Q265.39-33.8 257.84-33.8L257.84-33.8 254.54-33.8 254.54 0 251.14 0ZM310.83-4.3L311.13-4.3 310.83-1.25Q309.43-0.65 307.43-0.2 305.43 0.25 303.38 0.48 301.33 0.7 299.73 0.7L299.73 0.7Q295.68 0.7 292.23-0.68 288.78-2.05 286.21-4.5 283.63-6.95 282.18-10.28 280.73-13.6 280.73-17.5L280.73-17.5Q280.73-21.4 282.18-24.73 283.63-28.05 286.21-30.5 288.78-32.95 292.23-34.33 295.68-35.7 299.73-35.7L299.73-35.7Q301.38-35.7 303.43-35.45 305.48-35.2 307.43-34.77 309.38-34.35 310.73-33.8L310.73-33.8 310.48-31 310.18-31Q308.33-32.7 305.53-33.6 302.73-34.5 299.73-34.5L299.73-34.5Q295.23-34.5 291.81-32.38 288.38-30.25 286.46-26.43 284.53-22.6 284.53-17.5L284.53-17.5Q284.53-12.35 286.46-8.55 288.38-4.75 291.78-2.63 295.18-0.5 299.73-0.5L299.73-0.5Q303.13-0.5 306.06-1.6 308.98-2.7 310.83-4.3L310.83-4.3ZM336.53 0L321.13 0 321.13-35 336.38-35 336.38-32.55 327.63-33.7Q325.33-34 324.53-34L324.53-34 324.53-18.75Q325.18-18.75 327.63-18.9L327.63-18.9 335.83-19.4 335.83-17.1 327.63-17.6Q325.18-17.75 324.53-17.75L324.53-17.75 324.53-1Q325.43-1 327.68-1.3L327.68-1.3 336.53-2.45 336.53 0ZM343.98-1.1L343.98-1.1 344.28-4.1 344.58-4.1Q346.53-2.4 348.98-1.45 351.43-0.5 353.83-0.5L353.83-0.5Q357.23-0.5 359.33-2.38 361.43-4.25 361.43-7.4L361.43-7.4Q361.43-9.15 360.65-10.65 359.88-12.15 358.1-13.7 356.33-15.25 353.23-17.05L353.23-17.05Q351.08-18.3 349.13-19.68 347.18-21.05 345.93-22.88 344.68-24.7 344.68-27.25L344.68-27.25Q344.68-31.05 347.43-33.38 350.18-35.7 354.68-35.7L354.68-35.7Q356.68-35.7 358.98-35.27 361.28-34.85 362.53-34.2L362.53-34.2 362.28-31.4 361.98-31.4Q359.13-34.5 354.68-34.5L354.68-34.5Q351.48-34.5 349.53-32.88 347.58-31.25 347.58-28.5L347.58-28.5Q347.58-26.45 348.65-24.98 349.73-23.5 351.43-22.33 353.13-21.15 355.08-20.05L355.08-20.05Q357.33-18.75 359.45-17.3 361.58-15.85 362.95-13.83 364.33-11.8 364.33-8.75L364.33-8.75Q364.33-5.95 363.03-3.83 361.73-1.7 359.35-0.5 356.98 0.7 353.83 0.7L353.83 0.7Q351.83 0.7 349.13 0.2 346.43-0.3 343.98-1.1Z" fill="#ff5db2" data-fill-palette-color="secondary"></path></g></svg></g></svg></g><g transform="matrix(1,0,0,1,0,49.06450833892473)"><svg viewBox="0 0 232.209792 22.341547581811497" height="22.341547581811497" width="232.209792"><g transform="matrix(1,0,0,1,0,0)"><svg width="232.209792" viewBox="2.9 -38.7 407.90000000000003 39.25" height="22.341547581811497" data-palette-color="#ff5db2"><path d="M2.9-37.45L9.75-38.7 9.1-13 9.65-1.25 2.9 0 3.5-12.15 2.9-37.45ZM24.55-5.1L24.55-5.1Q26-5.1 27.6-5.85 29.2-6.6 30.1-7.35L30.1-7.35 31-8.1 33.3-5.3Q32.8-4.45 31.75-3.35 30.7-2.25 29.62-1.48 28.55-0.7 26.77-0.08 25 0.55 23.1 0.55L23.1 0.55Q19.05 0.55 16.5-2.53 13.95-5.6 13.95-10.45L13.95-10.45Q13.95-16.55 17.5-21.15 21.05-25.75 25.8-25.75L25.8-25.75Q29.45-25.75 31.47-23.7 33.5-21.65 33.5-17.95L33.5-17.95Q33.5-15.75 32.75-12.95L32.75-12.95 31.75-11.9 19.25-10.75Q20.1-5.1 24.55-5.1ZM24.55-20.6L24.55-20.6Q22.35-20.6 20.85-18.82 19.35-17.05 19.1-14.3L19.1-14.3 27.6-15.35Q27.75-16.5 27.75-17.25L27.75-17.25Q27.75-20.6 24.55-20.6ZM42.85 0Q39.9 0 38.02-1.88 36.15-3.75 36.15-6.93 36.15-10.1 39.05-12.43 41.95-14.75 46.1-14.75L46.1-14.75 49.5-14.75 49.5-15.6Q49.5-18.05 48.5-18.95 47.5-19.85 44.75-19.85L44.75-19.85Q43.6-19.85 42.02-19.38 40.45-18.9 38.5-17.9L38.5-17.9 37.05-21.85Q39.2-23.35 42.27-24.55 45.35-25.75 47.35-25.75L47.35-25.75Q55.2-25.75 55.2-18.15L55.2-18.15 55.2-8.35Q55.2-5.55 56.95-2.1L56.95-2.1 51.65 0.15Q50.4-2.25 49.8-4.15L49.8-4.15Q47.05 0 42.85 0L42.85 0ZM44.95-5.1L44.95-5.1Q46.95-5.1 49.5-7.15L49.5-7.15 49.5-10.5Q46.85-11.1 45.2-11.1L45.2-11.1Q42.05-11.1 42.05-8.3L42.05-8.3Q42.05-6.85 42.85-5.98 43.65-5.1 44.95-5.1ZM60.74-24.15L60.74-24.15 66.79-25.45Q67.24-21.6 67.39-18.15L67.39-18.15Q71.94-25.2 75.94-25.2L75.94-25.2 75.39-17.4Q72.49-17.4 70.82-16.88 69.14-16.35 67.39-14.8L67.39-14.8 67.39-13 67.94-1.25 61.24 0 61.84-12.15Q61.64-18.85 60.74-24.15ZM93.59-12.65Q93.59-16.1 92.99-17.25 92.39-18.4 90.19-18.4 87.99-18.4 85.19-16.65L85.19-16.65 85.19-13 85.74-1.25 79.04 0 79.64-12.15Q79.44-18.85 78.54-24.15L78.54-24.15 84.59-25.45Q84.94-22.55 85.09-19.8L85.09-19.8Q85.84-20.8 86.79-21.78 87.74-22.75 89.79-23.98 91.84-25.2 94.12-25.2 96.39-25.2 97.94-23.43 99.49-21.65 99.49-18.6L99.49-18.6 99.19-13 99.74-1 92.99 0.25 93.59-12.65ZM133.49-14.4L135.24-6.25 135.89-6.25 137.49-13.1 140.09-25.45 146.19-24.7 142.54-12.3 139.49-0.6 131.29 0.15 128.54-12 128.29-12.8 124.94-0.6 116.99 0.15 114.09-12 110.64-24.15 117.19-25.4 119.24-14.4 121.04-6.25 121.69-6.25 125.99-20.5 124.94-24.15 131.39-25.4 133.49-14.4ZM154.48 0Q151.53 0 149.66-1.88 147.78-3.75 147.78-6.93 147.78-10.1 150.68-12.43 153.58-14.75 157.73-14.75L157.73-14.75 161.13-14.75 161.13-15.6Q161.13-18.05 160.13-18.95 159.13-19.85 156.38-19.85L156.38-19.85Q155.23-19.85 153.66-19.38 152.08-18.9 150.13-17.9L150.13-17.9 148.68-21.85Q150.83-23.35 153.91-24.55 156.98-25.75 158.98-25.75L158.98-25.75Q166.83-25.75 166.83-18.15L166.83-18.15 166.83-8.35Q166.83-5.55 168.58-2.1L168.58-2.1 163.28 0.15Q162.03-2.25 161.43-4.15L161.43-4.15Q158.68 0 154.48 0L154.48 0ZM156.58-5.1L156.58-5.1Q158.58-5.1 161.13-7.15L161.13-7.15 161.13-10.5Q158.48-11.1 156.83-11.1L156.83-11.1Q153.68-11.1 153.68-8.3L153.68-8.3Q153.68-6.85 154.48-5.98 155.28-5.1 156.58-5.1ZM171.98-24.2L174.88-24.2 174.88-29.65 181.63-30.95 180.98-24.2 187.03-24.2 186.48-20.1 180.78-20.1 180.53-9.65Q180.53-7.3 180.98-6.53 181.43-5.75 182.63-5.75 183.83-5.75 185.83-6.3L185.83-6.3 186.13-2.75Q182.83 0 180.33 0 177.83 0 176.23-1.83 174.63-3.65 174.63-6.6L174.63-6.6 174.93-12.2 174.88-20.1 171.43-20.1 171.98-24.2ZM199.28-19.25Q197.08-19.25 195.88-17.68 194.68-16.1 194.68-12.85 194.68-9.6 195.9-7.63 197.13-5.65 199.48-5.65L199.48-5.65Q200.68-5.65 201.83-6.4 202.98-7.15 203.58-7.9L203.58-7.9 204.13-8.7 206.63-6.1Q206.48-5.85 206.25-5.4 206.03-4.95 205.15-3.8 204.28-2.65 203.3-1.78 202.33-0.9 200.78-0.18 199.23 0.55 197.53 0.55L197.53 0.55Q193.78 0.55 191.43-2.5 189.08-5.55 189.08-10.45L189.08-10.45Q189.08-16.55 192.63-21.15 196.18-25.75 200.93-25.75L200.93-25.75Q202.38-25.75 203.83-25.33 205.28-24.9 206.78-24L206.78-24 203.28-17.85Q201.48-19.25 199.28-19.25ZM224.53-12.65Q224.53-16.1 223.93-17.25 223.33-18.4 221.13-18.4 218.93-18.4 216.13-16.65L216.13-16.65 216.13-13 216.68-1.25 209.93 0 210.53-12.15 209.93-37.45 216.78-38.7 216.13-25.75 216.13-19.9Q216.88-20.9 217.83-21.85 218.78-22.8 220.78-24 222.78-25.2 225.05-25.2 227.33-25.2 228.88-23.43 230.43-21.65 230.43-18.6L230.43-18.6 230.13-13 230.68-1 223.93 0.25 224.53-12.65ZM242.92-24.2L245.82-24.2 245.82-29.65 252.57-30.95 251.92-24.2 257.97-24.2 257.42-20.1 251.72-20.1 251.47-9.65Q251.47-7.3 251.92-6.53 252.37-5.75 253.57-5.75 254.77-5.75 256.77-6.3L256.77-6.3 257.07-2.75Q253.77 0 251.27 0 248.77 0 247.17-1.83 245.57-3.65 245.57-6.6L245.57-6.6 245.87-12.2 245.82-20.1 242.37-20.1 242.92-24.2ZM267.62 0L267.62 0Q264.92 0 263.24-1.78 261.57-3.55 261.57-6.45L261.57-6.45 261.87-12.2 261.32-24.2 268.02-25.45 267.37-10.25Q267.37-8.1 268.14-7.1 268.92-6.1 270.62-6.1 272.32-6.1 275.32-7.8L275.32-7.8 275.32-10.8 274.77-23.95 281.52-25.2 280.92-12.7 280.97-8.6Q280.97-5.4 282.62-2.15L282.62-2.15 277.42 0.15Q275.77-3.1 275.42-5.05L275.42-5.05Q270.92 0 267.62 0ZM286.17-24.2L289.07-24.2 289.07-29.65 295.82-30.95 295.17-24.2 301.22-24.2 300.67-20.1 294.97-20.1 294.72-9.65Q294.72-7.3 295.17-6.53 295.62-5.75 296.82-5.75 298.02-5.75 300.02-6.3L300.02-6.3 300.32-2.75Q297.02 0 294.52 0 292.02 0 290.42-1.83 288.82-3.65 288.82-6.6L288.82-6.6 289.12-12.2 289.07-20.1 285.62-20.1 286.17-24.2ZM303.36-10.45Q303.36-16.85 306.81-21.3 310.26-25.75 314.89-25.75 319.51-25.75 322.09-22.75 324.66-19.75 324.66-14.8L324.66-14.8Q324.66-8.2 321.34-3.83 318.01 0.55 312.96 0.55L312.96 0.55Q308.81 0.55 306.09-2.58 303.36-5.7 303.36-10.45L303.36-10.45ZM319.06-12.2L319.06-12.2Q319.06-19.45 314.11-19.45L314.11-19.45Q308.96-19.45 308.96-12.65L308.96-12.65Q308.96-9.1 310.41-7.1 311.86-5.1 314.24-5.1 316.61-5.1 317.84-6.93 319.06-8.75 319.06-12.2ZM328.41-24.15L328.41-24.15 334.46-25.45Q334.91-21.6 335.06-18.15L335.06-18.15Q339.61-25.2 343.61-25.2L343.61-25.2 343.06-17.4Q340.16-17.4 338.49-16.88 336.81-16.35 335.06-14.8L335.06-14.8 335.06-13 335.61-1.25 328.91 0 329.51-12.15Q329.31-18.85 328.41-24.15ZM346.76-24.2L353.46-25.45 352.86-13 353.41-1.25 346.71 0 347.31-12.15 346.76-24.2ZM346.41-32.77Q346.41-34.45 347.71-35.77 349.01-37.1 350.71-37.1 352.41-37.1 353.31-36.18 354.21-35.25 354.21-33.4 354.21-31.55 352.93-30.23 351.66-28.9 349.98-28.9 348.31-28.9 347.36-30 346.41-31.1 346.41-32.77ZM363.96 0Q361.01 0 359.13-1.88 357.26-3.75 357.26-6.93 357.26-10.1 360.16-12.43 363.06-14.75 367.21-14.75L367.21-14.75 370.61-14.75 370.61-15.6Q370.61-18.05 369.61-18.95 368.61-19.85 365.86-19.85L365.86-19.85Q364.71-19.85 363.13-19.38 361.56-18.9 359.61-17.9L359.61-17.9 358.16-21.85Q360.31-23.35 363.38-24.55 366.46-25.75 368.46-25.75L368.46-25.75Q376.31-25.75 376.31-18.15L376.31-18.15 376.31-8.35Q376.31-5.55 378.06-2.1L378.06-2.1 372.76 0.15Q371.51-2.25 370.91-4.15L370.91-4.15Q368.16 0 363.96 0L363.96 0ZM366.06-5.1L366.06-5.1Q368.06-5.1 370.61-7.15L370.61-7.15 370.61-10.5Q367.96-11.1 366.31-11.1L366.31-11.1Q363.16-11.1 363.16-8.3L363.16-8.3Q363.16-6.85 363.96-5.98 364.76-5.1 366.06-5.1ZM382.4-37.45L389.25-38.7 388.6-13 389.15-1.25 382.4 0 383-12.15 382.4-37.45ZM402.6-4.65L402.6-4.65Q405.2-4.65 405.2-6.95L405.2-6.95Q405.2-7.75 404.08-8.45 402.95-9.15 401.33-9.85 399.7-10.55 398.08-11.43 396.45-12.3 395.33-13.85 394.2-15.4 394.2-17.4L394.2-17.4Q394.2-20.75 397.15-23.25 400.1-25.75 403.95-25.75L403.95-25.75Q405.75-25.75 407.48-25.33 409.2-24.9 410.8-24L410.8-24 407.45-17.9Q407.1-18.2 406.55-18.65 406-19.1 404.48-19.83 402.95-20.55 401.78-20.55 400.6-20.55 399.98-20.03 399.35-19.5 399.35-18.57 399.35-17.65 401.08-16.73 402.8-15.8 404.85-15.03 406.9-14.25 408.63-12.48 410.35-10.7 410.35-8.25L410.35-8.25Q410.35-4.75 407.48-2.1 404.6 0.55 400.85 0.55L400.85 0.55Q398.45 0.55 396.38-0.5 394.3-1.55 393.4-2.6L393.4-2.6 392.5-3.65 396.45-8.25Q396.75-7.85 397.3-7.25 397.85-6.65 399.48-5.65 401.1-4.65 402.6-4.65Z" opacity="1" transform="matrix(1,0,0,1,0,0)" fill="#ff5db2" class="slogan-text-1" data-fill-palette-color="secondary" id="text-1"></path></svg></g></svg></g></svg></g></svg></g><g><svg viewBox="0 0 100.65718297794083 98.68316928245748" height="98.68316928245748" width="100.65718297794083"><g><svg xmlns="http://www.w3.org/2000/svg" xmlns:xlink="http://www.w3.org/1999/xlink" version="1.1" x="0" y="0" viewBox="6.735593140231474 7.7439333385674916 82.5138356950292 80.89563581192154" enable-background="new 0 0 96 96" xml:space="preserve" height="98.68316928245748" width="100.65718297794083" class="icon-icon-0" data-fill-palette-color="accent" id="icon-0"><g fill="#ff5db2" data-fill-palette-color="accent"><g fill="#ff5db2" data-fill-palette-color="accent"><g fill="#ff5db2" data-fill-palette-color="accent"><path fill="#ff5db2" d="M76.414 11.271C79.58 13.786 83.144 15.726 86.081 18.522V16.754C79.871 21.627 73.118 25.521 65.498 21.046 61.309 18.586 65.217 16.32 67.42 14.591 70.271 12.354 72.681 8.587 76.667 11.466 77.977 12.412 79.223 10.242 77.929 9.308 73.878 6.383 71.107 7.912 67.743 11.004 65.733 12.851 59.755 15.761 60.738 19.335 61.886 23.509 67.991 25.336 71.704 25.729 77.708 26.364 83.45 21.974 87.849 18.522 88.377 18.108 88.299 17.183 87.849 16.754 84.899 13.944 81.36 12.027 78.182 9.503 76.933 8.512 75.151 10.269 76.414 11.271" data-fill-palette-color="accent"></path></g></g><g fill="#ff5db2" data-fill-palette-color="accent"><g fill="#ff5db2" data-fill-palette-color="accent"><path fill="#ff5db2" d="M84.723 19.696C85.458 23.158 86.665 26.496 86.749 30.068 86.787 31.677 89.287 31.681 89.249 30.068 89.159 26.265 87.916 22.718 87.133 19.031 86.798 17.454 84.389 18.123 84.723 19.696" data-fill-palette-color="accent"></path></g></g><g fill="#ff5db2" data-fill-palette-color="accent"><g fill="#ff5db2" data-fill-palette-color="accent"><path fill="#ff5db2" d="M64.134 23.566C62.681 26.221 61.932 29.107 62.235 32.139 62.393 33.727 64.895 33.743 64.735 32.139 64.474 29.524 65.035 27.126 66.293 24.828 67.067 23.414 64.908 22.152 64.134 23.566" data-fill-palette-color="accent"></path></g></g><g fill="#ff5db2" data-fill-palette-color="accent"><g fill="#ff5db2" data-fill-palette-color="accent"><path fill="#ff5db2" d="M62.854 33.218C66.16 34.909 69.418 37.275 73.167 37.834 74.743 38.069 75.421 35.66 73.831 35.423 70.291 34.896 67.241 32.658 64.116 31.06 62.683 30.327 61.418 32.484 62.854 33.218" data-fill-palette-color="accent"></path></g></g><g fill="#ff5db2" data-fill-palette-color="accent"><g fill="#ff5db2" data-fill-palette-color="accent"><path fill="#ff5db2" d="M74.129 37.708C77.01 36.087 80.07 34.753 82.668 32.678 83.928 31.672 82.147 29.915 80.9 30.91 78.489 32.835 75.541 34.044 72.867 35.549 71.463 36.339 72.723 38.5 74.129 37.708" data-fill-palette-color="accent"></path></g></g><g fill="#ff5db2" data-fill-palette-color="accent"><g fill="#ff5db2" data-fill-palette-color="accent"><path fill="#ff5db2" d="M82.99 31.461C82.482 28.598 81.39 25.738 81.309 22.816 81.264 21.207 78.764 21.203 78.809 22.816 78.897 25.974 80.031 29.036 80.58 32.126 80.861 33.712 83.27 33.038 82.99 31.461" data-fill-palette-color="accent"></path></g></g><g fill="#ff5db2" data-fill-palette-color="accent"><g fill="#ff5db2" data-fill-palette-color="accent"><path fill="#ff5db2" d="M72.293 36.961C74.335 47.229 76.781 57.178 77.87 67.611 78.369 72.386 79.788 79.064 74.202 81.01 70.937 82.149 67.426 82.362 64.039 82.921 50.808 85.104 36.18 87.662 22.845 85.109 20.457 84.652 17.985 83.863 16.256 82.083 13.577 79.325 14.786 72.414 13.818 68.703 12.142 62.279 10.182 56.305 9.498 49.645 8.892 43.743 8.603 36.037 11.717 30.788 15.809 23.889 29.033 25.879 35.747 25.348 45.503 24.576 55.451 23.805 65.213 24.845 66.816 25.016 66.799 22.514 65.213 22.345 53.858 21.135 42.561 22.693 31.219 23.113 23.711 23.391 14.58 22.874 9.558 29.527 6.411 33.696 6.706 41.045 6.775 45.952 6.871 52.799 8.462 59.327 10.402 65.844 11.435 69.314 12.115 72.542 12.256 76.163 12.333 78.143 12.5 80.332 13.376 82.146 14.507 84.487 16.647 85.708 18.983 86.632 26.232 89.5 35.33 88.615 42.896 88.07 50.81 87.501 58.554 86.005 66.413 85.08 70.337 84.618 74.515 84.021 77.997 82.054 81.021 80.344 80.82 75.398 80.763 72.491 80.52 60.155 77.091 48.308 74.702 36.296 74.389 34.716 71.98 35.386 72.293 36.961" data-fill-palette-color="accent"></path></g></g><g fill="#ff5db2" data-fill-palette-color="accent"><g fill="#ff5db2" data-fill-palette-color="accent"><path fill="#ff5db2" d="M38.411 43.188C37.649 50.647 37.089 58.313 39.146 65.617 39.369 66.407 40.275 66.757 40.982 66.364 47.106 62.972 53.685 60.007 58.5 54.774 58.968 54.265 58.987 53.512 58.5 53.006 53.443 47.747 46.901 43.413 40.291 40.383 38.836 39.716 37.565 41.87 39.029 42.541 45.47 45.494 51.811 49.656 56.732 54.773V53.005C52.068 58.072 45.65 60.919 39.72 64.204L41.556 64.951C39.56 57.869 40.171 50.413 40.91 43.186 41.075 41.584 38.573 41.6 38.411 43.188" data-fill-palette-color="accent"></path></g></g></g></svg></g></svg></g></svg></g><defs></defs></svg><rect width="395.52" height="77.20567123790224" fill="none" stroke="none" visibility="hidden"></rect></g></svg></g></svg>